<?xml version="1.0" encoding="utf-8"?>
<!-- Generator: Adobe Illustrator 20.1.0, SVG Export Plug-In . SVG Version: 6.00 Build 0)  -->
<svg version="1.1" id="Layer_1" xmlns="http://www.w3.org/2000/svg" xmlns:xlink="http://www.w3.org/1999/xlink" x="0px" y="0px"
	 width="45.7px" height="45.7px" viewBox="0 0 45.7 45.7" style="enable-background:new 0 0 45.7 45.7;" xml:space="preserve">
<path d="M39.2,0c1.8,0,3.3,0.6,4.6,1.9c1.3,1.3,1.9,2.8,1.9,4.6v32.7c0,1.8-0.6,3.3-1.9,4.6c-1.3,1.3-2.8,1.9-4.6,1.9H6.5
	c-1.8,0-3.3-0.6-4.6-1.9C0.6,42.5,0,41,0,39.2V6.5c0-1.8,0.6-3.3,1.9-4.6S4.7,0,6.5,0H39.2z M42.5,39.2V19.6h-7
	c0.3,1.2,0.5,2.3,0.5,3.3c0,2.4-0.6,4.6-1.7,6.6c-1.2,2-2.8,3.6-4.8,4.8c-2,1.2-4.2,1.7-6.6,1.7s-4.6-0.6-6.6-1.7
	c-2-1.2-3.6-2.8-4.8-4.8s-1.7-4.2-1.7-6.6c0-1,0.2-2.1,0.5-3.3h-7v19.6c0,0.9,0.3,1.7,1,2.3c0.6,0.6,1.4,1,2.3,1h32.7
	c0.9,0,1.7-0.3,2.3-1C42.2,40.9,42.5,40.1,42.5,39.2z M29.8,15.9c-1.9-1.9-4.2-2.9-6.9-2.9s-5,1-6.9,2.9s-2.9,4.2-2.9,6.9
	s1,5,2.9,6.9s4.2,2.9,6.9,2.9s5-1,6.9-2.9s2.9-4.2,2.9-6.9S31.7,17.9,29.8,15.9z M42.5,9.8V6.5c0-0.9-0.3-1.7-1-2.3
	c-0.6-0.6-1.4-1-2.3-1h-3.3c-0.9,0-1.7,0.3-2.3,1c-0.6,0.6-1,1.4-1,2.3v3.3c0,0.9,0.3,1.7,1,2.3c0.6,0.6,1.4,1,2.3,1h3.3
	c0.9,0,1.7-0.3,2.3-1C42.2,11.5,42.5,10.7,42.5,9.8z"/>
</svg>
