<?xml version="1.0" encoding="utf-8"?>
<!-- Generator: Adobe Illustrator 20.1.0, SVG Export Plug-In . SVG Version: 6.00 Build 0)  -->
<svg version="1.1" id="Layer_1" xmlns="http://www.w3.org/2000/svg" xmlns:xlink="http://www.w3.org/1999/xlink" x="0px" y="0px"
	 width="45.7px" height="45.7px" viewBox="0 0 45.7 45.7" style="enable-background:new 0 0 45.7 45.7;" xml:space="preserve">
<path d="M39.2,0c1.8,0,3.3,0.6,4.6,1.9c1.3,1.3,1.9,2.8,1.9,4.6v32.7c0,1.8-0.6,3.3-1.9,4.6c-1.3,1.3-2.8,1.9-4.6,1.9H6.5
	c-1.8,0-3.3-0.6-4.6-1.9C0.6,42.5,0,41,0,39.2V6.5c0-1.8,0.6-3.3,1.9-4.6S4.7,0,6.5,0H39.2z M10.3,16.2c1.2,0,2.1-0.3,2.8-1
	c0.7-0.7,1-1.5,1-2.5c0-1-0.4-1.9-1-2.5c-0.7-0.7-1.6-1-2.7-1c-1.1,0-2.1,0.3-2.8,1c-0.7,0.7-1,1.5-1,2.5c0,1,0.3,1.8,1,2.5
	C8.3,15.9,9.2,16.2,10.3,16.2L10.3,16.2z M13.7,39.2V19H6.9v20.2H13.7z M37.9,39.2V27.6c0-3-0.7-5.2-2.1-6.8
	c-1.4-1.5-3.3-2.3-5.6-2.3c-0.9,0-1.6,0.1-2.3,0.3s-1.3,0.5-1.7,0.9c-0.5,0.4-0.9,0.7-1.1,1c-0.3,0.3-0.6,0.7-0.8,1.1V19h-6.7
	c0,0.6,0,2.5,0,5.9s0,6.6,0,9.7l0,4.6h6.7V27.9c0-0.7,0.1-1.3,0.2-1.6c0.2-0.4,0.4-0.8,0.7-1.2c0.3-0.3,0.7-0.6,1.2-0.9
	c0.5-0.2,1-0.4,1.6-0.4c1.2,0,2,0.4,2.6,1.2c0.6,0.8,0.8,1.9,0.8,3.4v10.8H37.9z"/>
</svg>
